# cube.obj
#

o cube
mtllib cube.mtl

v -0.500000 -0.500000 0.500000
v 0.500000 -0.500000 0.500000
v -0.500000 0.500000 0.500000
v 0.500000 0.500000 0.500000
v -0.500000 0.500000 -0.500000
v 0.500000 0.500000 -0.500000
v -0.500000 -0.500000 -0.500000
v 0.500000 -0.500000 -0.500000

vt 0.000000 0.000000
vt 0.330000 0.000000
vt 0.330000 0.250000
vt 0.000000 0.250000

vt 0.330000 0.000000
vt 0.660000 0.000000
vt 0.660000 0.250000
vt 0.330000 0.250000

vt 0.660000 0.000000
vt 0.990000 0.000000
vt 0.990000 0.250000
vt 0.660000 0.250000

vt 0.330000 0.250000
vt 0.660000 0.250000
vt 0.660000 0.500000
vt 0.330000 0.500000

vt 0.330000 0.500000
vt 0.660000 0.500000
vt 0.660000 0.750000
vt 0.330000 0.750000

vt 0.330000 0.750000
vt 0.660000 0.750000
vt 0.660000 1.000000
vt 0.330000 1.000000

vn 0.000000 0.000000 1.000000
vn 0.000000 1.000000 0.000000
vn 0.000000 0.000000 -1.000000
vn 0.000000 -1.000000 0.000000
vn 1.000000 0.000000 0.000000
vn -1.000000 0.000000 0.000000

g cube
usemtl cube
s 1
f 1/1/1 2/2/1 3/4/1
f 3/4/1 2/2/1 4/3/1
s 2
f 3/5/2 4/6/2 5/8/2
f 5/8/2 4/6/2 6/7/2
s 3
f 5/9/3 6/10/3 7/12/3
f 7/12/3 6/10/3 8/11/3
s 4
f 7/13/4 8/14/4 1/16/4
f 1/16/4 8/14/4 2/15/4
s 5
f 2/17/5 8/18/5 4/20/5
f 4/20/5 8/18/5 6/19/5
s 6
f 7/21/6 1/22/6 5/24/6
f 5/24/6 1/22/6 3/23/6
